<?xml version="1.0" encoding="utf-8"?>
<!-- Generator: Adobe Illustrator 22.1.0, SVG Export Plug-In . SVG Version: 6.00 Build 0)  -->
<svg version="1.1" id="Layer_1" xmlns="http://www.w3.org/2000/svg" xmlns:xlink="http://www.w3.org/1999/xlink" x="0px" y="0px"
	 viewBox="0 0 18 30" style="enable-background:new 0 0 18 30;" xml:space="preserve">
<style type="text/css">
	.st0{fill:#FFFFFF;}
</style>
<path class="st0" d="M0.2,15.2C3.1,10.4,6.1,5.6,9,0.7c2.9,4.9,5.8,9.7,8.8,14.5c-0.5,0.3-0.9,0.5-1.4,0.8c-2.4,1.4-4.8,2.8-7.2,4.2
	c-0.1,0.1-0.2,0.1-0.4,0C6,18.7,3.2,17,0.4,15.4C0.4,15.3,0.3,15.3,0.2,15.2z"/>
<path class="st0" d="M0.4,17c0.7,0.4,1.5,0.9,2.2,1.3c2.1,1.2,4.1,2.4,6.2,3.7c0.2,0.1,0.3,0.1,0.5,0c2.7-1.6,5.4-3.2,8.1-4.8
	c0.1,0,0.2-0.1,0.3-0.1c-2.9,4.1-5.8,8.1-8.7,12.2C6.1,25.2,3.2,21.1,0.4,17C0.3,17,0.3,17,0.4,17z"/>
</svg>
