<?xml version="1.0" encoding="utf-8"?>
<!-- Generator: Adobe Illustrator 22.1.0, SVG Export Plug-In . SVG Version: 6.00 Build 0)  -->
<svg version="1.1" id="Layer_1" xmlns="http://www.w3.org/2000/svg" xmlns:xlink="http://www.w3.org/1999/xlink" x="0px" y="0px"
	 viewBox="0 0 45 45" style="enable-background:new 0 0 45 45;" xml:space="preserve">
<style type="text/css">
	.st0{fill:#FFFFFF;}
</style>
<g>
	<path class="st0" d="M30.2,7.8l-4.3,0c-4.9,0-8,3.2-8,8.2v3.8h-4.4c-0.4,0-0.7,0.3-0.7,0.7V26c0,0.4,0.3,0.7,0.7,0.7h4.4v13.9
		c0,0.4,0.3,0.7,0.7,0.7h5.7c0.4,0,0.7-0.3,0.7-0.7V26.7H30c0.4,0,0.7-0.3,0.7-0.7l0-5.5c0-0.2-0.1-0.4-0.2-0.5
		c-0.1-0.1-0.3-0.2-0.5-0.2h-5.1v-3.2c0-1.5,0.4-2.3,2.4-2.3l2.9,0c0.4,0,0.7-0.3,0.7-0.7V8.4C30.9,8.1,30.6,7.8,30.2,7.8z"/>
</g>
</svg>
