<?xml version="1.0" encoding="utf-8"?>
<!-- Generator: Adobe Illustrator 22.1.0, SVG Export Plug-In . SVG Version: 6.00 Build 0)  -->
<svg version="1.1" id="Layer_1" xmlns="http://www.w3.org/2000/svg" xmlns:xlink="http://www.w3.org/1999/xlink" x="0px" y="0px"
	 viewBox="0 0 130 130" style="enable-background:new 0 0 130 130;" xml:space="preserve">
<style type="text/css">
	.st0{fill:#FFFFFF;}
</style>
<g>
	<circle class="st0" cx="14.3" cy="114.8" r="4"/>
	<circle class="st0" cx="30.9" cy="97.5" r="4"/>
	<path class="st0" d="M45,77.7c-1.6,1.6-1.6,4.1,0,5.7s4.1,1.6,5.7,0s1.6-4.1,0-5.7C49.1,76.2,46.6,76.2,45,77.7z"/>
	<circle class="st0" cx="64.8" cy="63.6" r="4"/>
	<circle class="st0" cx="21.8" cy="20.6" r="4"/>
	<circle class="st0" cx="107.8" cy="106.6" r="4"/>
	<circle class="st0" cx="81.8" cy="46.6" r="4"/>
	<path class="st0" d="M95.9,26.8c-1.6,1.6-1.6,4.1,0,5.7c1.6,1.6,4.1,1.6,5.7,0s1.6-4.1,0-5.7S97.5,25.2,95.9,26.8z"/>
	<circle class="st0" cx="115.7" cy="12.7" r="4"/>
</g>
</svg>
