<?xml version="1.0" encoding="utf-8"?>
<!-- Generator: Adobe Illustrator 22.1.0, SVG Export Plug-In . SVG Version: 6.00 Build 0)  -->
<svg version="1.1" id="Layer_1" xmlns="http://www.w3.org/2000/svg" xmlns:xlink="http://www.w3.org/1999/xlink" x="0px" y="0px"
	 viewBox="0 0 45 45" style="enable-background:new 0 0 45 45;" xml:space="preserve">
<style type="text/css">
	.st0{fill:#FFFFFF;}
</style>
<g id="XMLID_496_">
	<path id="XMLID_497_" class="st0" d="M2.9,22.3l8.8,3.3l3.4,11c0.2,0.7,1.1,1,1.7,0.5l4.9-4c0.5-0.4,1.3-0.4,1.8,0l8.9,6.5
		c0.6,0.4,1.5,0.1,1.6-0.6l6.5-31.3c0.2-0.8-0.6-1.5-1.4-1.2l-36.3,14C2,20.7,2,21.9,2.9,22.3z M14.6,23.8l17.3-10.6
		c0.3-0.2,0.6,0.2,0.4,0.5L18,26.9c-0.5,0.5-0.8,1.1-0.9,1.8l-0.5,3.6c-0.1,0.5-0.7,0.5-0.9,0.1l-1.9-6.6C13.6,25,14,24.2,14.6,23.8
		z"/>
</g>
</svg>
