<?xml version="1.0" encoding="utf-8"?>
<!-- Generator: Adobe Illustrator 22.1.0, SVG Export Plug-In . SVG Version: 6.00 Build 0)  -->
<svg version="1.1" id="Layer_1" xmlns="http://www.w3.org/2000/svg" xmlns:xlink="http://www.w3.org/1999/xlink" x="0px" y="0px"
	 viewBox="0 0 45 45" style="enable-background:new 0 0 45 45;" xml:space="preserve">
<style type="text/css">
	.st0{fill:#FFFFFF;}
</style>
<g>
	<g>
		<path class="st0" d="M43.7,10.6c-1.5,0.7-3.2,1.1-4.9,1.3c1.8-1,3.1-2.7,3.7-4.7c-1.6,1-3.5,1.7-5.4,2.1c-1.5-1.7-3.8-2.7-6.2-2.7
			c-4.7,0-8.5,3.8-8.5,8.5c0,0.7,0.1,1.3,0.2,1.9c-7.1-0.4-13.3-3.7-17.5-8.9C4.4,9.4,4,10.9,4,12.4c0,2.9,1.5,5.5,3.8,7.1
			c-1.4,0-2.7-0.4-3.8-1.1v0.1c0,4.1,2.9,7.5,6.8,8.3c-0.7,0.2-1.5,0.3-2.2,0.3c-0.5,0-1.1-0.1-1.6-0.2c1.1,3.4,4.2,5.8,7.9,5.9
			c-2.9,2.3-6.6,3.6-10.5,3.6c-0.7,0-1.4,0-2-0.1c3.8,2.4,8.2,3.8,13,3.8c15.6,0,24.1-12.9,24.1-24.1l0-1.1
			C41.1,13.8,42.5,12.3,43.7,10.6z"/>
	</g>
</g>
</svg>
